Coordinates
version=1
nRows=27
nColumns=12
inDegrees=yes

Units are S.I. units (second, meters, Newtons, ...)
Angles are in degrees

endheader
time	SC_y	SC_z	SC_x	AC_y	AC_z	AC_x	GH_y	GH_z	GH_yy	EL_x	PS_y
       0.0              -23.43          21.54          41.08          50.27         -9.463         -13.26          97.02          53.12          112.6          9.606          45.82
   0.01898              -23.43          21.54          41.08          50.27         -9.461         -13.25          96.98          53.12          112.6          9.623          45.82
   0.03797              -23.43          21.54          41.07          50.27         -9.459         -13.25          96.94          53.13          112.6          9.641          45.82
   0.05695              -23.43          21.54          41.07          50.27         -9.457         -13.24           96.9          53.13          112.6           9.66          45.82
   0.07594              -23.44          21.54          41.06          50.27         -9.455         -13.24          96.86          53.14          112.6           9.68          45.83
   0.09492              -23.44          21.54          41.05          50.27         -9.453         -13.24          96.82          53.14          112.6          9.702          45.83
    0.1139              -23.44          21.54          41.04          50.27         -9.451         -13.23          96.77          53.15          112.6          9.725          45.83
    0.1329              -23.44          21.54          41.04          50.27         -9.448         -13.23          96.72          53.15          112.6           9.75          45.83
    0.1519              -23.45          21.54          41.03          50.26         -9.445         -13.22          96.66          53.16          112.6          9.776          45.83
    0.1709              -23.45          21.54          41.02          50.26         -9.442         -13.21           96.6          53.17          112.6          9.804          45.83
    0.1898              -23.45          21.54          41.01          50.26         -9.439         -13.21          96.54          53.18          112.7          9.835          45.83
    0.2088              -23.46          21.54          40.99          50.26         -9.436          -13.2          96.47          53.18          112.7          9.868          45.83
    0.2278              -23.46          21.54          40.98          50.26         -9.432         -13.19           96.4          53.19          112.7          9.903          45.84
    0.2468              -23.47          21.54          40.97          50.26         -9.428         -13.18          96.32           53.2          112.7          9.941          45.84
    0.2658              -23.47          21.54          40.95          50.26         -9.424         -13.18          96.24          53.21          112.7          9.982          45.84
    0.2848              -23.48          21.54          40.94          50.26         -9.419         -13.17          96.14          53.22          112.7          10.03          45.84
    0.3038              -23.48          21.54          40.92          50.26         -9.414         -13.16          96.04          53.24          112.7          10.08          45.84
    0.3227              -23.49          21.54           40.9          50.26         -9.408         -13.15          95.93          53.25          112.7          10.13          45.84
    0.3417               -23.5          21.54          40.88          50.26         -9.402         -13.13          95.81          53.27          112.7          10.19          45.85
    0.3607               -23.5          21.54          40.86          50.26         -9.396         -13.12          95.68          53.28          112.7          10.25          45.85
    0.3797              -23.51          21.54          40.84          50.25         -9.388          -13.1          95.54           53.3          112.7          10.32          45.85
    0.3987              -23.52          21.54          40.81          50.25          -9.38         -13.09          95.38          53.32          112.7           10.4          45.86
    0.4177              -23.53          21.54          40.78          50.25         -9.372         -13.07           95.2          53.34          112.7          10.48          45.86
    0.4367              -23.54          21.54          40.75          50.25         -9.362         -13.05          95.01          53.36          112.7          10.57          45.86
    0.4556              -23.55          21.54          40.71          50.25         -9.351         -13.03          94.79          53.39          112.7          10.68          45.87
    0.4746              -23.57          21.54          40.67          50.24         -9.339          -13.0          94.55          53.42          112.7          10.79          45.87
    0.4936              -23.58          21.54          40.63          50.24         -9.325         -12.98          94.28          53.45          112.7          10.92          45.88
